<svg width="120" height="120" viewBox="0 0 120 120" fill="none" xmlns="http://www.w3.org/2000/svg">
<path d="M12.08 104C9.82668 104 8 102.146 8 99.8588V56.3765C8 54.0894 9.82668 52.2353 12.08 52.2353H26.36C44.3866 52.2353 59 67.0678 59 85.3647V99.8588C59 102.146 57.1733 104 54.92 104H47.6667C45.4759 104 43.7 102.197 43.7 99.9739V86.1699C43.7 76.005 35.5814 67.7647 25.5667 67.7647C24.3148 67.7647 23.3 68.7947 23.3 70.0654V99.8588C23.3 102.146 21.4733 104 19.22 104H12.08Z" fill="url(#paint0_linear_144_6)"/>
<path d="M8 20.1412C8 17.8541 9.82668 16 12.08 16H54.92C57.1733 16 59 17.8541 59 20.1412V34.6353C59 52.9322 44.3866 67.7647 26.36 67.7647H12.08C9.82668 67.7647 8 65.9106 8 63.6235V56.2614C8 54.0379 9.77594 52.2353 11.9667 52.2353H25.5667C35.5814 52.2353 43.7 43.995 43.7 33.8301C43.7 32.5594 42.6852 31.5294 41.4333 31.5294H12.08C9.82668 31.5294 8 29.6753 8 27.3882V20.1412Z" fill="url(#paint1_linear_144_6)"/>
<path d="M112 63.6235C112 65.9106 110.173 67.7647 107.92 67.7647H65.08C62.8267 67.7647 61 65.9106 61 63.6235V49.1294C61 30.8325 75.6134 16 93.64 16H107.92C110.173 16 112 17.8541 112 20.1412V27.5033C112 29.7268 110.224 31.5294 108.033 31.5294H94.4333C84.4186 31.5294 76.3 39.7697 76.3 49.9346C76.3 51.2053 77.3148 52.2353 78.5667 52.2353H107.92C110.173 52.2353 112 54.0894 112 56.3765V63.6235Z" fill="url(#paint2_linear_144_6)"/>
<path d="M61 56.3765C61 54.0894 62.8267 52.2353 65.08 52.2353H107.92C110.173 52.2353 112 54.0894 112 56.3765V70.8706C112 89.1675 97.3866 104 79.36 104H65.08C62.8267 104 61 102.146 61 99.8588V92.4967C61 90.2732 62.7759 88.4706 64.9667 88.4706H78.5667C88.5814 88.4706 96.7 80.2303 96.7 70.0654C96.7 68.7947 95.6852 67.7647 94.4333 67.7647H65.08C62.8267 67.7647 61 65.9106 61 63.6235V56.3765Z" fill="url(#paint3_linear_144_6)"/>
<defs>
<linearGradient id="paint0_linear_144_6" x1="60" y1="16" x2="60" y2="104" gradientUnits="userSpaceOnUse">
<stop stop-color="#2563EB"/>
<stop offset="1" stop-color="#A855F7"/>
</linearGradient>
<linearGradient id="paint1_linear_144_6" x1="60" y1="16" x2="60" y2="104" gradientUnits="userSpaceOnUse">
<stop stop-color="#2563EB"/>
<stop offset="1" stop-color="#A855F7"/>
</linearGradient>
<linearGradient id="paint2_linear_144_6" x1="60" y1="16" x2="60" y2="104" gradientUnits="userSpaceOnUse">
<stop stop-color="#2563EB"/>
<stop offset="1" stop-color="#A855F7"/>
</linearGradient>
<linearGradient id="paint3_linear_144_6" x1="60" y1="16" x2="60" y2="104" gradientUnits="userSpaceOnUse">
<stop stop-color="#2563EB"/>
<stop offset="1" stop-color="#A855F7"/>
</linearGradient>
</defs>
</svg>
